PathFileType	4	(X/Y/Z)	/Users/itak/Documents/Research/Walk-IL/dataset/trc/00365_00011.trc
DataRate	CameraRate	NumFrames	NumMarkers	Units	OrigDataRate	OrigDataStartFrame	OrigNumFrames
100.000000	100.000000	4	56	mm	100.000000	263	351
Frame#	Time	RPSI			LPSI			L3			STRN			T10			C7			CLAV			RBAK			LBAK			LSHO			LUPA			LAEL			LAOL			LWTS			LWPS			LFRA			LIFD			LHPS			LHTS			RSHO			RUPA			RAEL			RAOL			RWTS			RWPS			RFRA			RIFD			RHTS			RHPS			RBHD			LFHD			RFHD			LBHD			LHIP			RHIP			RASI			LASI			LKNE			LTHI			LANK			LTIP			LTOE			LMT1			LMT5			LHEE			RKNE			RTHI			RTIP			RTOE			RMT1			RMT5			RANK			RHEE			*53			*54			*55			
		X1	Y1	Z1	X2	Y2	Z2	X3	Y3	Z3	X4	Y4	Z4	X5	Y5	Z5	X6	Y6	Z6	X7	Y7	Z7	X8	Y8	Z8	X9	Y9	Z9	X10	Y10	Z10	X11	Y11	Z11	X12	Y12	Z12	X13	Y13	Z13	X14	Y14	Z14	X15	Y15	Z15	X16	Y16	Z16	X17	Y17	Z17	X18	Y18	Z18	X19	Y19	Z19	X20	Y20	Z20	X21	Y21	Z21	X22	Y22	Z22	X23	Y23	Z23	X24	Y24	Z24	X25	Y25	Z25	X26	Y26	Z26	X27	Y27	Z27	X28	Y28	Z28	X29	Y29	Z29	X30	Y30	Z30	X31	Y31	Z31	X32	Y32	Z32	X33	Y33	Z33	X34	Y34	Z34	X35	Y35	Z35	X36	Y36	Z36	X37	Y37	Z37	X38	Y38	Z38	X39	Y39	Z39	X40	Y40	Z40	X41	Y41	Z41	X42	Y42	Z42	X43	Y43	Z43	X44	Y44	Z44	X45	Y45	Z45	X46	Y46	Z46	X47	Y47	Z47	X48	Y48	Z48	X49	Y49	Z49	X50	Y50	Z50	X51	Y51	Z51	X52	Y52	Z52	X53	Y53	Z53	X54	Y54	Z54	X55	Y55	Z55	X56	Y56	Z56	

264	2.63	560.9940185546875	970.0442504882812	-465.5358581542969	432.9801330566406	969.283447265625	-449.2668151855469	500.3790893554688	1019.261596679688	-455.2655029296875	457.1811828613281	1224.5869140625	-658.1011352539062	486.9318542480469	1135.06201171875	-428.9075012207031	464.9889221191406	1386.6142578125	-442.5998840332031	455.754150390625	1346.15185546875	-604.1167602539062	537.9887084960938	1245.251586914062	-416.6236267089844	366.4039306640625	1345.620971679688	-424.591552734375	300.6257629394531	1369.203002929688	-502.2367248535156	236.7054443359375	1248.99951171875	-485.2061462402344	209.5171508789062	1049.203735351562	-517.1686401367188	272.5615234375	1026.999633789062	-462.96728515625	234.5669708251953	843.18115234375	-670.5408935546875	184.18896484375	819.3682250976562	-628.2987670898438	196.36181640625	949.7106323242188	-549.9834594726562	226.2436218261719	692.962158203125	-727.4915161132812	189.5021362304688	752.7844848632812	-647.7835083007812	213.3123626708984	774.2704467773438	-702.7554931640625	622.3357543945312	1382.870483398438	-515.781005859375	685.7486572265625	1318.111694335938	-514.7403564453125	726.2228393554688	1051.877075195312	-547.47119140625	640.5094604492188	1039.93896484375	-511.1291809082031	673.6110229492188	846.3181762695312	-694.6030883789062	741.7945556640625	826.0206909179688	-666.7918701171875	736.360595703125	989.029296875	-582.392578125	678.1865844726562	673.4915161132812	-727.23193359375	682.0574951171875	747.9869384765625	-735.0936279296875	735.8982543945312	744.1875	-691.4597778320312	541.9951782226562	1592.236206054688	-468.2593994140625	401.1506958007812	1633.038208007812	-616.4044189453125	502.681884765625	1634.670043945312	-620.41259765625	401.3741760253906	1581.005737304688	-437.0850830078125	320.8102111816406	913.2737426757812	-524.5121459960938	665.3576049804688	923.2050170898438	-551.7933349609375	602.8302612304688	952.5726318359375	-657.1068115234375	362.4244995117188	945.8546142578125	-650.9682006835938	313.31201171875	460.1763610839844	-565.7196044921875	306.2879943847656	600.07275390625	-568.8698120117188	313.0202026367188	45.17621994018555	-515.786865234375	298.4037170410156	247.0443420410156	-539.6000366210938	355.9066162109375	40.19216156005859	-725.0579833984375	401.2597045898438	26.27003860473633	-658.1331176757812	289.4369812011719	40.71396636962891	-639.9252319335938	381.3777770996094	38.23344039916992	-485.5902099609375	633.9966430664062	457.1371459960938	-593.91455078125	658.057861328125	722.6234130859375	-644.0797119140625	623.7472534179688	339.6514282226562	-600.1943359375	554.728759765625	40.44865417480469	-720.575439453125	516.9716796875	37.22585678100586	-662.396484375	630.4664306640625	28.86759757995605	-630.4866943359375	618.8344116210938	42.84322357177734	-530.2395629882812	572.9318237304688	46.66902160644531	-478.716796875	nan	nan	nan	nan	nan	nan	nan	nan	nan	
265	2.64	560.5781860351562	970.2257690429688	-466.2989501953125	432.6022338867188	969.4724731445312	-449.9578857421875	499.9513854980469	1019.544250488281	-455.9533081054688	456.7096252441406	1224.650268554688	-658.9195556640625	486.3075561523438	1135.229125976562	-429.7459106445312	464.4498901367188	1386.76806640625	-443.5516967773438	455.3196105957031	1346.23583984375	-605.025634765625	537.3436279296875	1245.447875976562	-417.4542236328125	365.7419128417969	1345.850708007812	-425.6899719238281	300.1697998046875	1369.583984375	-503.3674926757812	235.7788696289062	1249.492553710938	-486.9553527832031	207.7094573974609	1050.04833984375	-520.5482177734375	270.3963012695312	1027.087768554688	-466.2919006347656	232.6391143798828	846.1555786132812	-676.4788208007812	182.1617889404297	821.7813720703125	-634.7180786132812	194.3967132568359	951.02734375	-554.5702514648438	223.8201599121094	696.912841796875	-735.8076782226562	187.1997680664062	755.590087890625	-655.1437377929688	211.1232757568359	777.848388671875	-709.7665405273438	621.8088989257812	1382.965454101562	-516.5220336914062	685.206298828125	1318.175903320312	-515.3501586914062	725.048828125	1051.82666015625	-547.3699951171875	639.2599487304688	1040.15234375	-511.0585021972656	673.5433349609375	843.9271240234375	-691.7108154296875	741.826416015625	824.6192016601562	-663.2890625	735.2535400390625	988.7386474609375	-581.5877685546875	679.3128051757812	670.4366455078125	-721.6871337890625	682.8546142578125	745.1122436523438	-730.7081298828125	736.5225830078125	742.339599609375	-686.7803955078125	541.5505981445312	1592.2626953125	-469.2857971191406	400.7820129394531	1633.180419921875	-617.4755859375	502.3224487304688	1634.776123046875	-621.4599609375	400.9266967773438	1581.1279296875	-438.1552734375	320.267333984375	913.4357299804688	-525.0682983398438	665.295654296875	923.9013671875	-551.3924560546875	602.0797119140625	952.5380249023438	-657.867431640625	361.6906127929688	946.0062255859375	-651.5340576171875	313.0737915039062	460.2941284179688	-566.8803100585938	305.9517211914062	600.0648193359375	-570.1882934570312	313.02783203125	45.19594573974609	-515.8152465820312	298.347900390625	246.955322265625	-540.2605590820312	355.9279174804688	40.14169311523438	-725.0924072265625	401.2868041992188	26.26376914978027	-658.1435546875	289.4769897460938	40.71739959716797	-639.927001953125	381.39697265625	38.28122329711914	-485.6189575195312	633.4267578125	457.0613098144531	-594.6133422851562	658.1522827148438	723.3755493164062	-643.1299438476562	623.314453125	339.5396728515625	-600.7606811523438	554.697265625	40.43749618530273	-720.595703125	516.9212036132812	37.17097091674805	-662.4097290039062	630.3720703125	28.89380264282227	-630.4827880859375	618.7813720703125	42.93402099609375	-530.2523803710938	572.77392578125	46.70829772949219	-478.7329406738281	nan	nan	nan	nan	nan	nan	nan	nan	nan	
266	2.65	560.114013671875	970.3997192382812	-467.0013427734375	432.1842346191406	969.6589965820312	-450.602294921875	499.49169921875	1019.827758789062	-456.5889282226562	456.2516479492188	1224.736694335938	-659.7207641601562	485.7405090332031	1135.447875976562	-430.5986328125	463.9566955566406	1386.958618164062	-444.4937744140625	454.9000854492188	1346.349731445312	-605.9214477539062	536.7767944335938	1245.684936523438	-418.2581481933594	365.1432800292969	1346.119873046875	-426.7377624511719	299.74267578125	1369.996826171875	-504.447509765625	234.9095153808594	1250.020751953125	-488.6109008789062	206.0438995361328	1050.923706054688	-523.8030395507812	268.3873291015625	1027.24267578125	-469.5296630859375	230.8341674804688	848.9678344726562	-682.0787353515625	180.2835540771484	824.086669921875	-640.7300415039062	192.5925598144531	952.3377685546875	-558.9454956054688	221.6353149414062	700.6101684570312	-743.46728515625	185.1032104492188	758.2578125	-661.973876953125	209.0996398925781	781.1940307617188	-716.2866821289062	621.3034057617188	1383.109619140625	-517.2861938476562	684.7076416015625	1318.312255859375	-516.0089111328125	723.9429931640625	1051.85107421875	-547.2730712890625	638.0735473632812	1040.432739257812	-510.9870300292969	673.4901733398438	841.7537841796875	-688.9207153320312	741.8401489257812	823.3816528320312	-659.9168090820312	734.1962280273438	988.5330200195312	-580.8168334960938	680.2910766601562	667.5844116210938	-716.1995849609375	683.568359375	742.4555053710938	-726.4032592773438	737.0950927734375	740.6921997070312	-682.2401733398438	541.1343383789062	1592.298828125	-470.2821044921875	400.463623046875	1633.346801757812	-618.5291748046875	502.0150451660156	1634.906616210938	-622.4872436523438	400.5235900878906	1581.276977539062	-439.2040710449219	319.6800842285156	913.6056518554688	-525.621337890625	665.14306640625	924.548828125	-551.011474609375	601.3335571289062	952.4971313476562	-658.5531005859375	360.9565734863281	946.1817626953125	-652.085693359375	312.7434387207031	460.4039306640625	-568.135986328125	305.5604858398438	600.0713500976562	-571.5176391601562	313.0346374511719	45.21710205078125	-515.8482055664062	298.3513793945312	246.8543243408203	-540.9745483398438	355.9398498535156	40.08437347412109	-725.1365966796875	401.3104248046875	26.2601375579834	-658.158203125	289.5108642578125	40.71212005615234	-639.9332275390625	381.4165344238281	38.34273910522461	-485.6676025390625	632.9121704101562	457.010498046875	-595.1827392578125	658.1541137695312	724.0762939453125	-642.205322265625	622.9271240234375	339.4565734863281	-601.2093505859375	554.6787719726562	40.42915725708008	-720.61181640625	516.883544921875	37.1295166015625	-662.4215698242188	630.3058471679688	28.91162490844727	-630.4810791015625	618.74072265625	43.00823593139648	-530.2630004882812	572.631103515625	46.74029922485352	-478.7491149902344	nan	nan	nan	nan	nan	nan	nan	nan	nan	
267	2.66	559.5798950195312	970.5481567382812	-467.6413269042969	431.7037353515625	969.8189086914062	-451.2149963378906	498.9796142578125	1020.081726074219	-457.1784057617188	455.8104858398438	1224.83154296875	-660.5078735351562	485.2188110351562	1135.69775390625	-431.4532775878906	463.5069885253906	1387.171142578125	-445.4265441894531	454.5009155273438	1346.48095703125	-606.8073120117188	536.2833862304688	1245.944580078125	-419.0396728515625	364.6034240722656	1346.41064453125	-427.7378540039062	299.3427124023438	1370.42041015625	-505.4789428710938	234.1070556640625	1250.55419921875	-490.1663818359375	204.5270690917969	1051.799560546875	-526.9326782226562	266.5375671386719	1027.433349609375	-472.6716918945312	229.1655578613281	851.5828247070312	-687.33642578125	178.5660705566406	826.2469482421875	-646.3350219726562	190.9513244628906	953.6055908203125	-563.1053466796875	219.6882019042969	704.0139770507812	-750.4950561523438	183.2197265625	760.7459106445312	-668.2880249023438	207.2554931640625	784.27685546875	-722.3287963867188	620.828369140625	1383.285400390625	-518.0782470703125	684.2542724609375	1318.498779296875	-516.717529296875	722.9096069335938	1051.925415039062	-547.1758422851562	636.95458984375	1040.754638671875	-510.9123840332031	673.4536743164062	839.78369140625	-686.2531127929688	741.8297119140625	822.27294921875	-656.6896362304688	733.1944580078125	988.38525390625	-580.0816040039062	681.1047973632812	664.9466552734375	-710.81396484375	684.183349609375	740.00244140625	-722.2061767578125	737.5949096679688	739.2141723632812	-677.8583984375	540.7474365234375	1592.338256835938	-471.2494201660156	400.1936950683594	1633.527099609375	-619.5641479492188	501.7575073242188	1635.050048828125	-623.4926147460938	400.1658935546875	1581.438354492188	-440.2326354980469	319.040771484375	913.7637329101562	-526.2026977539062	664.9049072265625	925.1290283203125	-550.6434326171875	600.6025390625	952.4447021484375	-659.1610107421875	360.2333068847656	946.3643188476562	-652.64501953125	312.331298828125	460.4983215332031	-569.4373779296875	305.1259765625	600.086669921875	-572.8153686523438	313.0390930175781	45.23685836791992	-515.8828125	298.4146728515625	246.7399444580078	-541.705078125	355.9433898925781	40.02466201782227	-725.1849975585938	401.3292846679688	26.25873184204102	-658.1748046875	289.5368957519531	40.69828796386719	-639.9419555664062	381.435302734375	38.412841796875	-485.7281799316406	632.4654541015625	456.9944763183594	-595.615234375	658.064697265625	724.7031860351562	-641.3079223632812	622.5907592773438	339.4089050292969	-601.5294799804688	554.6754760742188	40.42421722412109	-720.6237182617188	516.8598022460938	37.10201644897461	-662.4322509765625	630.26611328125	28.92314910888672	-630.480712890625	618.7099609375	43.06719970703125	-530.2706909179688	572.50341796875	46.76148986816406	-478.7632446289062	nan	nan	nan	nan	nan	nan	nan	nan	nan	
